<?xml version="1.0" standalone="no"?>
<!DOCTYPE svg PUBLIC "-//W3C//DTD SVG 1.1//EN" "http://www.w3.org/Graphics/SVG/1.1/DTD/svg11.dtd">
<svg xmlns:inkscape="http://www.inkscape.org/namespaces/inkscape" xmlns:sodipodi="http://sodipodi.sourceforge.net/DTD/sodipodi-0.dtd" xmlns="http://www.w3.org/2000/svg" xmlns:svg="http://www.w3.org/2000/svg" version="1.1" id="svg1" width="200" height="200" viewBox="0 0 200 200" sodipodi:docname="b1ecd173993e442b9e78adf4803be51f.svg" inkscape:version="1.3 (0e150ed6c4, 2023-07-21)">
  <defs id="defs1"/>
  <sodipodi:namedview id="namedview1" pagecolor="#ffffff" bordercolor="#000000" borderopacity="0.25" inkscape:showpageshadow="2" inkscape:pageopacity="0.0" inkscape:pagecheckerboard="0" inkscape:deskcolor="#d1d1d1" inkscape:zoom="3.935" inkscape:cx="124.26938" inkscape:cy="106.60737" inkscape:window-width="1920" inkscape:window-height="1001" inkscape:window-x="-9" inkscape:window-y="-9" inkscape:window-maximized="1" inkscape:current-layer="g1"/>
  <g inkscape:groupmode="layer" inkscape:label="Image" id="g1">
    <path style="fill:#000000;fill-opacity:1;stroke:#000000;stroke-width:0.0696315;stroke-dasharray:none;stroke-opacity:1" d="" id="path16"/>
    <g id="g29" transform="translate(-53.916511,-28.840877)">
      <circle style="fill:#ffd8e3;fill-opacity:1;stroke:#ffff00;stroke-width:1;stroke-dasharray:none" id="path8-8-1" cx="178.03622" cy="94.817665" r="17.441748"/>
      <circle style="fill:#c1688b;fill-opacity:1;stroke:#ffff00;stroke-width:0.996006;stroke-dasharray:none" id="path8-4" cx="178.22871" cy="94.956802" r="10.292249"/>
      <circle style="fill:#ffd8e3;fill-opacity:1;stroke:#ffff00;stroke-width:1;stroke-dasharray:none" id="path8-8" cx="128.65121" cy="95.286537" r="17.441748"/>
      <circle style="fill:#c1688b;fill-opacity:1;stroke:#ffff00;stroke-width:0.996006;stroke-dasharray:none" id="path8" cx="128.84372" cy="95.425667" r="10.292249"/>
      <path id="path8-8-15" style="fill:#ffd8e3;fill-opacity:1;stroke:#000000;stroke-width:1.096;stroke-dasharray:none;stroke-opacity:1" d="m 181.19696,116.69059 c 0,13.48818 -12.2351,20.4835 -28.42505,20.4835 -16.18995,0 -27.1544,-6.74119 -27.15439,-20.22937 0,-13.48818 10.96444,-28.488577 27.15439,-28.488577 16.18995,0 28.42505,14.746267 28.42505,28.234447 z" sodipodi:nodetypes="sssss"/>
      <path id="path8-8-15-9" style="fill:#ffd8e3;fill-opacity:1;stroke:#ffff00;stroke-width:1;stroke-dasharray:none" d="m 172.36447,148.0663 c 0.0722,5.78777 -7.1585,12.30646 -19.08668,11.68445 -10.89982,-0.56839 -18.08196,-3.8469 -18.23346,-11.53949 -0.25413,-12.90374 7.36233,-16.2508 18.23346,-16.2508 10.87113,0 18.91778,2.56723 19.08668,16.10584 z" sodipodi:nodetypes="csssc"/>
      <path id="path8-8-15-9-2" style="fill:#c1688b;fill-opacity:1;stroke:#ffff00;stroke-width:1;stroke-dasharray:none" d="m 151.00287,158.10579 c 0.0335,1.51998 -3.32018,3.2319 -8.85258,3.06855 -5.05544,-0.14927 -8.38659,-1.01026 -8.45686,-3.03048 -0.11787,-3.38876 3.41473,-4.26776 8.45686,-4.26776 5.04213,0 8.77425,0.6742 8.85258,4.22969 z" sodipodi:nodetypes="csssc"/>
      <path id="path8-8-15-9-2-6" style="fill:#c1688b;fill-opacity:1;stroke:#ffff00;stroke-width:1;stroke-dasharray:none" d="m 155.96021,158.82625 c -0.0335,1.51998 3.32018,3.2319 8.85258,3.06855 5.05545,-0.14927 8.38659,-1.01026 8.45686,-3.03048 0.11787,-3.38876 -3.41473,-4.26776 -8.45686,-4.26776 -5.04213,0 -8.77425,0.6742 -8.85258,4.22969 z" sodipodi:nodetypes="csssc"/>
      <circle style="fill:#c1688b;fill-opacity:1;stroke:#ffff00;stroke-width:1.09561;stroke-dasharray:none" id="path9" cx="153.43076" cy="121.60103" r="4.7013979"/>
      <path id="path9-5" style="fill:none;stroke:#ffff00;stroke-width:1;stroke-dasharray:none" d="m 161.5414,114.65038 c 0,-1.76406 1.43006,-3.19412 3.19412,-3.19412 1.76406,0 3.19412,1.43006 3.19412,3.19412" sodipodi:nodetypes="csc"/>
      <path id="path9-5-2" style="fill:none;stroke:#ffff00;stroke-width:1;stroke-dasharray:none" d="m 138.45056,114.99865 c 0,-1.76406 1.43006,-3.19412 3.19412,-3.19412 1.76406,0 3.19412,1.43006 3.19412,3.19412" sodipodi:nodetypes="csc"/>
      <path style="fill:none;stroke:#ffff00;stroke-width:1.09561;stroke-dasharray:none" d="m 137.03147,121.52602 h 7.63712" id="path10"/>
      <path style="fill:#000000;fill-opacity:1;stroke:#ffff00;stroke-width:1.09561;stroke-dasharray:none" d="m 138.73859,130.10654 6.91833,-4.80689" id="path11"/>
      <path style="fill:#000000;fill-opacity:1;stroke:#ffff00;stroke-width:1.09561;stroke-dasharray:none" d="m 160.52682,125.11995 7.36757,5.03151" id="path12"/>
      <path style="fill:#000000;fill-opacity:1;stroke:#000000;stroke-width:1.096;stroke-dasharray:none;stroke-opacity:1" d="m 161.51516,121.57094 8.49067,-0.0449" id="path13"/>
      <path style="fill:none;stroke:#ffff00;stroke-width:1.09561;stroke-dasharray:none" d="m 116.89961,120.33037 c 0,0 -0.39096,8.2079 0.76239,12.07115 1.51939,5.08932 4.05088,10.16731 7.87802,13.85007 2.71642,2.61393 10.03812,5.20965 10.03812,5.20965" id="path14" sodipodi:nodetypes="cssc"/>
      <path style="fill:#c1688b;fill-opacity:1;stroke:#ffff00;stroke-width:1.09561;stroke-dasharray:none" d="m 141.12655,142.16846 c 0.65845,-1.45771 1.99205,-1.89466 3.15641,-1.91567 0.81768,-0.0148 2.64182,0.96492 2.46279,2.06882 -0.41142,2.53681 -0.21645,3.20452 2.28584,4.02302 1.0903,0.35663 1.58303,1.69003 1.04183,2.63434 -0.42272,0.73758 -1.18583,1.9637 -2.24308,2.42169 -4.31571,1.86954 -8.08658,-6.1709 -6.70379,-9.2322 z" id="path15" sodipodi:nodetypes="sssssss"/>
      <path style="fill:#c1688b;fill-opacity:1;stroke:#ffff00;stroke-width:1.09561;stroke-dasharray:none" d="m 165.56459,142.34252 c -0.65845,-1.4577 -1.99205,-1.89465 -3.15641,-1.91567 -0.81767,-0.0148 -2.64182,0.96492 -2.46279,2.06882 0.41142,2.53681 0.21645,3.20453 -2.28584,4.02302 -1.0903,0.35664 -1.58303,1.69004 -1.04183,2.63435 0.42272,0.73758 1.18583,1.96369 2.24308,2.42169 4.31571,1.86954 8.08658,-6.1709 6.70379,-9.23221 z" id="path15-9" sodipodi:nodetypes="sssssss"/>
      <path style="fill:#000000;fill-opacity:1;stroke:#000000;stroke-width:0.0696315;stroke-dasharray:none;stroke-opacity:1" d="m 138.76175,130.07787 c -0.22862,-0.32418 -0.2604,-0.40329 -0.18862,-0.46947 0.0475,-0.0438 1.58873,-1.12143 3.425,-2.39477 l 3.33867,-2.31517 0.29437,0.42083 0.29437,0.42084 -3.37515,2.34594 c -1.85634,1.29027 -3.40633,2.35399 -3.44443,2.36381 -0.0381,0.01 -0.19299,-0.15758 -0.34421,-0.37201 z" id="path17"/>
      <path style="fill:#000000;fill-opacity:1;stroke:#000000;stroke-width:0.0696315;stroke-dasharray:none;stroke-opacity:1" d="m 138.82128,130.07879 c -0.14142,-0.1789 -0.25712,-0.34834 -0.25712,-0.37654 0,-0.0506 1.04153,-0.78641 4.82642,-3.40955 l 1.93909,-1.3439 0.20844,0.29561 c 0.11465,0.16259 0.24346,0.33729 0.28625,0.38824 0.065,0.0774 -6.9e-4,0.14612 -0.3987,0.4174 -0.26207,0.17862 -1.50571,1.03926 -2.76366,1.91254 -2.02521,1.40592 -3.2724,2.25812 -3.50718,2.39644 -0.0474,0.0279 -0.17416,-0.0786 -0.33354,-0.28024 z" id="path18"/>
      <path style="fill:#000000;fill-opacity:1;stroke:#000000;stroke-width:0.0696315;stroke-dasharray:none;stroke-opacity:1" d="m 138.82128,130.10267 c -0.14406,-0.16366 -0.2537,-0.34034 -0.24363,-0.39261 0.0185,-0.0958 0.72469,-0.60281 4.21142,-3.02332 1.04828,-0.72772 2.04928,-1.42934 2.22444,-1.55915 l 0.31848,-0.23602 0.29589,0.42302 0.2959,0.42301 -1.44029,0.99911 c -3.62262,2.51295 -5.30984,3.66354 -5.37222,3.66354 -0.0154,0 -0.14592,-0.13391 -0.28999,-0.29758 z" id="path19"/>
      <path style="fill:#000000;fill-opacity:1;stroke:#000000;stroke-width:0.0696315;stroke-dasharray:none;stroke-opacity:1" d="m 137.03939,121.50571 v -0.50825 h 3.81194 3.81194 v 0.50825 0.50826 h -3.81194 -3.81194 z" id="path20"/>
      <path style="fill:#000000;fill-opacity:1;stroke:#000000;stroke-width:0.0696315;stroke-dasharray:none;stroke-opacity:1" d="m 137.99237,114.77441 c 0,-0.36481 0.14162,-0.86731 0.39249,-1.39272 0.63451,-1.32885 2.05161,-2.13608 3.54742,-2.02073 1.28531,0.0991 2.42766,0.87668 2.97633,2.0259 0.24864,0.52078 0.38999,1.02371 0.38999,1.38755 v 0.18747 h -0.46761 -0.4676 l -0.0365,-0.35326 c -0.0855,-0.82869 -0.68163,-1.64363 -1.49705,-2.04663 -0.46555,-0.23009 -0.49859,-0.23671 -1.1811,-0.23671 -0.65747,0 -0.72933,0.0129 -1.1293,0.20235 -0.8374,0.39669 -1.4684,1.23771 -1.5545,2.07185 l -0.0374,0.3624 h -0.4676 -0.46761 z" id="path21"/>
      <path style="fill:#000000;fill-opacity:1;stroke:#000000;stroke-width:0.0696315;stroke-dasharray:none;stroke-opacity:1" d="m 161.09363,114.2789 c 0.20436,-1.86151 1.76306,-3.26758 3.62228,-3.26758 0.68436,0 1.1336,0.11279 1.76401,0.44288 1.02446,0.53643 1.78374,1.69084 1.89965,2.88824 l 0.0292,0.30178 h -0.4577 -0.45771 l -0.0771,-0.42885 c -0.20612,-1.14625 -1.00144,-1.97563 -2.1292,-2.22036 -0.42208,-0.0916 -0.55873,-0.0959 -0.94915,-0.0298 -1.2022,0.20352 -2.08077,1.07165 -2.28375,2.25662 l -0.0724,0.42238 h -0.46414 -0.46415 z" id="path22"/>
      <path style="fill:#000000;fill-opacity:1;stroke:#000000;stroke-width:0.0696315;stroke-dasharray:none;stroke-opacity:1" d="m 163.96317,128.09251 c -1.947,-1.33398 -3.56876,-2.45474 -3.6039,-2.49057 -0.0719,-0.0733 0.39161,-0.82431 0.50877,-0.82431 0.0934,0 7.23759,4.87892 7.2382,4.94313 7.5e-4,0.0783 -0.50629,0.8072 -0.55779,0.80187 -0.0249,-0.003 -1.63828,-1.09614 -3.58528,-2.43012 z" id="path23"/>
      <path style="fill:#000000;fill-opacity:1;stroke:#000000;stroke-width:0.0696315;stroke-dasharray:none;stroke-opacity:1" d="m 152.79542,126.7829 c -1.51966,-0.22025 -2.94519,-1.11354 -3.73536,-2.34071 -1.54587,-2.4008 -0.88936,-5.59219 1.47217,-7.15649 0.9581,-0.63465 1.77249,-0.88265 2.89852,-0.88265 1.12602,0 1.94041,0.248 2.89851,0.88265 1.74608,1.15662 2.63285,3.30321 2.21009,5.34994 -0.35109,1.69971 -1.59067,3.17536 -3.20263,3.81252 -0.74613,0.29493 -1.83049,0.43776 -2.5413,0.33474 z m 1.62261,-1.11644 c 1.43291,-0.36302 2.5864,-1.46533 3.02427,-2.8901 0.20657,-0.67215 0.20657,-1.67854 0,-2.3507 -0.34125,-1.11035 -1.1252,-2.05262 -2.10558,-2.53077 -0.70957,-0.34608 -1.16664,-0.45525 -1.90597,-0.45525 -0.73847,0 -1.19545,0.10896 -1.90598,0.45444 -0.4312,0.20966 -0.64249,0.36636 -1.04856,0.77764 -0.85097,0.8619 -1.20821,1.73054 -1.20472,2.92929 0.004,1.21035 0.3576,2.07129 1.20472,2.9293 0.40573,0.41094 0.61771,0.56821 1.04856,0.77794 0.29702,0.14459 0.69727,0.30403 0.88946,0.35433 0.46784,0.12243 1.52773,0.12448 2.0038,0.004 z" id="path24"/>
      <path style="fill:#000000;fill-opacity:1;stroke:#000000;stroke-width:0.0696315;stroke-dasharray:none;stroke-opacity:1" d="m 162.32528,162.31261 c -2.39001,-0.18586 -4.56965,-0.845 -5.75705,-1.74095 l -0.38857,-0.2932 -1.708,-0.0342 c -0.9394,-0.0188 -2.2798,-0.0835 -2.97865,-0.14366 l -1.27065,-0.10941 -0.38436,0.22982 c -1.62753,0.97311 -4.53725,1.50603 -7.71935,1.41382 -5.07005,-0.14692 -7.87849,-0.99667 -8.67848,-2.62585 -0.16562,-0.3373 -0.18096,-0.42776 -0.18096,-1.06739 0,-0.7965 0.0786,-1.14315 0.40056,-1.76756 0.42152,-0.81736 1.18297,-1.46278 2.23159,-1.89152 0.28199,-0.1153 0.5127,-0.22933 0.5127,-0.25343 0,-0.0241 -0.11151,-0.21144 -0.2478,-0.41634 -0.23814,-0.35801 -0.6986,-1.22814 -0.82281,-1.55483 -0.0487,-0.12808 -0.22091,-0.21907 -0.93986,-0.49659 -3.28143,-1.26663 -6.2837,-2.76 -8.07342,-4.01583 -0.70837,-0.49707 -2.40175,-2.18739 -3.20561,-3.19984 -2.49515,-3.14259 -4.53385,-7.14136 -5.83034,-11.43583 -0.42259,-1.39981 -0.65708,-2.80591 -0.83169,-4.98729 -0.0873,-1.09112 -0.15667,-6.12846 -0.0956,-6.94349 l 0.0462,-0.61687 h 0.48645 0.48645 l 0.002,3.00191 c 0.002,3.77991 0.1499,5.93245 0.54429,7.92566 0.15245,0.77045 0.89004,3.04346 1.42252,4.38374 1.56934,3.95009 3.75491,7.41688 6.22821,9.87929 1.02403,1.01952 2.10399,1.75636 4.04438,2.75947 0.60541,0.31297 1.57248,0.78073 2.14904,1.03946 1.08213,0.4856 2.93873,1.25189 3.03314,1.25189 0.0294,0 0.002,-0.29304 -0.0606,-0.6512 -0.15615,-0.89103 -0.21041,-2.69866 -0.12062,-4.01843 0.29568,-4.34587 1.47642,-7.47977 3.6789,-9.76449 0.29749,-0.3086 0.52932,-0.57006 0.51519,-0.58103 -0.0141,-0.011 -0.45435,-0.18708 -0.97826,-0.39137 -1.76551,-0.6884 -3.63834,-1.6888 -5.0401,-2.69223 -3.44795,-2.46817 -5.77061,-5.71751 -6.90069,-9.6539 -0.74523,-2.59586 -0.97301,-5.68599 -0.64006,-8.68318 0.0543,-0.4892 0.1054,-0.9722 0.11345,-1.07334 0.0146,-0.18303 0.0116,-0.18458 -0.62069,-0.32874 -5.47649,-1.24852 -10.09305,-4.9976 -12.39361,-10.06476 -1.69611,-3.735817 -2.05945,-7.858727 -1.04426,-11.849547 0.32472,-1.27649 0.6713,-2.21026 1.27337,-3.43075 0.87286,-1.76944 1.89907,-3.22972 3.25637,-4.63378 l 0.71245,-0.73699 0.73062,0.002 0.73062,0.002 -0.31766,0.26237 c -0.17471,0.14431 -0.69192,0.64057 -1.14934,1.1028 -2.58569,2.6129 -4.19067,5.90413 -4.74019,9.72042 -0.11028,0.76586 -0.10848,3.49384 0.003,4.28843 0.54174,3.867117 2.1788,7.188127 4.87001,9.879487 0.85446,0.85451 1.51967,1.39472 2.62197,2.12927 1.28838,0.85855 2.47078,1.43707 3.97151,1.94316 0.72175,0.2434 2.26186,0.63531 2.2972,0.58457 0.007,-0.0106 0.0777,-0.33382 0.15621,-0.71819 0.27418,-1.34235 0.83123,-3.19941 1.42284,-4.74339 l 0.16216,-0.42319 -0.40626,-0.0707 c -3.70238,-0.64475 -6.96943,-3.45676 -8.21586,-7.071537 -0.45518,-1.32005 -0.54796,-1.91448 -0.54796,-3.51071 0,-1.59622 0.0928,-2.19066 0.54796,-3.5107 1.27835,-3.70738 4.51333,-6.43354 8.44072,-7.11313 0.81991,-0.14187 2.61235,-0.14187 3.43226,0 3.71822,0.64339 6.79613,3.09397 8.23651,6.55776 0.11624,0.27954 0.23798,0.50185 0.27053,0.49403 0.0325,-0.008 0.46881,-0.24938 0.96946,-0.53678 1.05856,-0.60766 2.54047,-1.3066 3.68344,-1.73728 l 0.80366,-0.30282 -0.10416,-0.29276 c -0.20794,-0.58448 -1.13387,-2.34305 -1.60927,-3.05641 -0.2678,-0.40184 -0.6816,-0.97363 -0.91956,-1.27065 -0.46536,-0.58083 -1.7599,-1.91094 -2.278,-2.34058 l -0.31766,-0.26343 0.68971,-4.1e-4 c 0.67981,-4e-4 0.69339,0.002 0.94542,0.20211 0.14063,0.11139 0.54098,0.51879 0.88967,0.90534 1.45448,1.61243 2.59345,3.38064 3.3252,5.16223 0.12642,0.30781 0.2502,0.58138 0.27506,0.60793 0.0249,0.0266 0.48663,-0.064 1.02615,-0.20133 3.11321,-0.79222 6.72891,-0.98902 9.939,-0.54097 1.37222,0.19152 2.76884,0.48695 3.90725,0.82651 0.29701,0.0886 0.59005,0.17557 0.6512,0.19328 0.0611,0.0177 0.11118,4.5e-4 0.11118,-0.0384 0,-0.14224 0.47034,-1.3246 0.82197,-2.06631 0.71129,-1.50036 1.75347,-3.04137 2.96207,-4.37984 l 0.60587,-0.67099 0.67989,-6.5e-4 0.67989,-6.6e-4 -0.85769,0.87461 c -1.78166,1.81682 -2.99889,3.73784 -3.87633,6.11759 l -0.17706,0.48021 0.93076,0.36843 c 1.21741,0.4819 2.86479,1.29531 4.00346,1.97676 0.50193,0.30038 0.91896,0.5375 0.92673,0.52694 0.008,-0.0106 0.11772,-0.34175 0.24431,-0.73596 0.53517,-1.66644 1.34437,-2.97459 2.64483,-4.27562 1.28743,-1.288 2.54343,-2.07321 4.19784,-2.62435 1.05992,-0.3531 1.80834,-0.48496 2.99351,-0.52744 1.259,-0.0451 2.22349,0.0681 3.3625,0.39477 1.8122,0.51972 3.2784,1.39665 4.66686,2.79124 2.88535,2.89811 3.86003,7.13722 2.53381,11.02021 -1.22438,3.584807 -4.31355,6.300147 -8.0289,7.057287 -0.34319,0.0699 -0.70526,0.12759 -0.8046,0.12813 -0.35202,0.002 -0.36247,0.0616 -0.11207,0.63946 0.59641,1.37645 1.23251,3.28387 1.58202,4.74394 0.13168,0.55009 0.0775,0.53735 1.14167,0.26834 6.84229,-1.72968 11.89309,-7.48169 12.71126,-14.475967 0.12013,-1.02702 0.12013,-2.92748 0,-3.95451 -0.34951,-2.98779 -1.43786,-5.72609 -3.24172,-8.15616 -0.60459,-0.81447 -1.50331,-1.82879 -2.03858,-2.30077 l -0.37568,-0.33126 0.67171,-0.002 0.6717,-0.002 0.50668,0.52415 c 1.96075,2.02834 3.54532,4.88097 4.27735,7.70034 1.00141,3.85682 0.70038,7.93038 -0.85584,11.581307 -0.87789,2.05956 -2.11,3.87582 -3.74447,5.51975 -1.49584,1.5045 -2.74241,2.42603 -4.51315,3.33635 -1.45855,0.74983 -2.6531,1.19282 -4.18164,1.55072 -0.69153,0.16191 -0.74834,0.18633 -0.71863,0.30879 0.1882,0.7758 0.35628,2.70882 0.35683,4.10375 0.003,7.05774 -3.27375,12.73144 -9.50595,16.46064 -1.07806,0.64509 -3.11242,1.62775 -4.11264,1.98655 -0.0995,0.0357 -0.0116,0.1483 0.54097,0.69291 2.07996,2.04993 3.344,4.74875 3.89021,8.3059 0.30061,1.95764 0.38722,4.27581 0.19989,5.35001 -0.27598,1.58259 -1.1878,3.4046 -2.38381,4.76333 -0.18241,0.20723 -0.32138,0.38594 -0.30882,0.39714 0.0126,0.0112 0.19437,0.0694 0.40402,0.12935 0.89736,0.25661 1.82395,0.80054 2.35668,1.38344 0.63113,0.69056 0.932,1.49912 0.9398,2.52565 0.004,0.54726 -0.0137,0.64208 -0.19089,1.01652 -0.71165,1.50344 -2.90861,2.30132 -7.17166,2.60457 -0.82278,0.0585 -3.37325,0.0708 -4.03431,0.0194 z m 5.23798,-1.06065 c 2.50173,-0.2847 4.0859,-0.77762 4.79811,-1.49293 0.43116,-0.43303 0.52892,-0.87222 0.37722,-1.69463 -0.30364,-1.64616 -1.95456,-2.56597 -5.17188,-2.88151 -1.92909,-0.1892 -5.01397,-0.13269 -6.77777,0.12417 -2.6923,0.39205 -4.04655,1.3435 -4.31727,3.03317 -0.10285,0.64193 -0.0278,0.86104 0.44486,1.29863 0.85204,0.78884 2.6041,1.40146 4.77343,1.66907 0.98437,0.12144 4.61876,0.0868 5.8733,-0.056 z m -22.89999,-0.61126 c 2.20475,-0.19137 4.04887,-0.72935 5.11989,-1.49361 0.56479,-0.40303 0.7251,-0.65582 0.7251,-1.14341 0,-1.85822 -1.463,-3.00859 -4.35197,-3.42201 -2.15065,-0.30775 -5.64655,-0.30892 -7.70971,-0.003 -1.96814,0.29224 -3.36753,0.96855 -3.90484,1.88717 -0.3642,0.62266 -0.47872,1.65538 -0.24148,2.17768 0.5628,1.23906 3.7462,2.0201 8.36174,2.05152 0.69886,0.005 1.59943,-0.0199 2.00127,-0.0548 z m 10.85323,-1.88911 c 0.0202,-1.70024 0.96033,-3.01138 2.67907,-3.73625 0.67235,-0.28356 1.88491,-0.57663 2.89083,-0.69868 1.83426,-0.22258 5.49929,-0.22319 7.1474,-0.001 0.78438,0.10566 0.68121,0.15957 1.44984,-0.75764 1.09704,-1.3091 1.76988,-2.63415 2.0808,-4.09784 0.21287,-1.00207 0.10593,-3.57269 -0.23126,-5.55908 -0.59392,-3.49883 -2.03936,-6.25808 -4.1847,-7.98835 -2.42958,-1.95951 -5.52677,-2.96818 -10.32815,-3.36358 -1.5528,-0.12788 -6.05268,-0.10874 -7.46506,0.0317 -5.3091,0.52808 -8.75976,1.99473 -11.00115,4.67588 -1.57293,1.88152 -2.48833,4.22309 -2.88312,7.37492 -0.14182,1.1322 -0.19458,3.61311 -0.096,4.51621 0.18113,1.66 0.8508,3.41897 1.67577,4.40161 l 0.20547,0.24473 0.60163,-0.10035 c 2.09681,-0.34975 5.65464,-0.38054 8.02663,-0.0695 3.11916,0.40906 4.87159,1.60449 5.27723,3.59988 0.14528,0.71465 0.12902,1.15972 -0.057,1.55922 -0.0854,0.18345 -0.14945,0.33567 -0.14232,0.33827 0.13471,0.0491 2.34036,0.17173 3.19675,0.17777 l 1.15076,0.008 z m -15.3192,-24.22636 c 1.80528,-1.26889 4.40384,-2.19522 7.452,-2.65645 3.35698,-0.50797 8.51088,-0.49467 12.00762,0.031 2.66797,0.40107 5.00499,1.166 6.714,2.19758 l 0.58312,0.35197 0.62399,-0.23556 c 4.51375,-1.70403 8.06588,-4.37546 10.32872,-7.76785 0.56466,-0.84654 1.43393,-2.60812 1.76374,-3.57425 1.80547,-5.28885 1.16282,-11.53571 -1.805,-17.54558 -2.8039,-5.677937 -7.22287,-10.274727 -12.70187,-13.213007 -2.98178,-1.59908 -6.03342,-2.55121 -9.57341,-2.98699 -1.41845,-0.17461 -4.43587,-0.15896 -5.84434,0.0303 -4.11823,0.55341 -7.60465,1.87407 -10.97151,4.15602 -6.11556,4.14493 -10.63214,11.054387 -12.11685,18.536367 -0.92139,4.64318 -0.61092,9.04702 0.89044,12.63053 1.27716,3.04841 3.45046,5.62236 6.37835,7.55422 1.062,0.70072 2.23881,1.3397 3.43075,1.86281 0.68874,0.30228 2.23679,0.88185 2.36376,0.88497 0.0596,0.001 0.27402,-0.11377 0.47649,-0.25609 z m -11.99932,-30.37974 c 1.67876,-3.41823 3.87402,-6.394427 6.61296,-8.965447 0.75107,-0.70502 2.1735,-1.87306 2.94319,-2.41682 0.23586,-0.16663 0.42884,-0.32839 0.42884,-0.35947 0,-0.13223 -0.33586,-0.93162 -0.64099,-1.52564 -1.34736,-2.62304 -3.77726,-4.44763 -6.77674,-5.08858 -0.58643,-0.12531 -0.86175,-0.14548 -1.9533,-0.14314 -1.06779,0.002 -1.37208,0.0251 -1.90597,0.14261 -3.03713,0.66869 -5.42534,2.47968 -6.79109,5.14971 -1.45201,2.83865 -1.45201,6.13526 0,8.97391 1.1767,2.300437 3.15417,3.999227 5.61499,4.823677 0.53302,0.17858 1.56693,0.42179 1.85449,0.43623 0.0764,0.004 0.25004,-0.28672 0.61362,-1.02704 z m 51.73047,0.48564 c 1.18299,-0.20155 2.63108,-0.77234 3.68019,-1.45062 3.80461,-2.45979 5.41172,-7.337727 3.83178,-11.630317 -0.85616,-2.32613 -2.59312,-4.26163 -4.81654,-5.36707 -1.63589,-0.81333 -3.19033,-1.12085 -5.09253,-1.00745 -3.48021,0.20747 -6.63685,2.35145 -8.15913,5.54167 -0.3196,0.66978 -0.64906,1.60417 -0.71927,2.03996 l -0.0409,0.25413 0.748,0.55034 c 3.67436,2.70341 6.85964,6.41855 9.07424,10.583717 l 0.31247,0.58767 h 0.29143 c 0.16028,0 0.56092,-0.0459 0.8903,-0.10203 z" id="path25"/>
      <path style="fill:#000000;fill-opacity:1;stroke:#000000;stroke-width:0.0696315;stroke-dasharray:none;stroke-opacity:1" d="m 165.8831,81.664783 c 2.77582,-2.52837 6.0346,-4.05817 9.81575,-4.60791 0.95245,-0.13848 3.42986,-0.15876 4.4155,-0.0361 3.21452,0.39987 6.13641,1.57943 8.70932,3.51592 0.40479,0.30467 0.948,0.75479 1.20711,1.00026 l 0.47112,0.44633 -0.66709,0.002 -0.66709,0.002 -0.47649,-0.38549 c -1.26444,-1.02293 -3.22852,-2.14247 -4.72427,-2.69286 -2.8468,-1.04754 -5.90967,-1.31595 -8.96696,-0.78582 -0.8626,0.14957 -1.98514,0.457 -2.92232,0.80033 -1.47707,0.54111 -3.46689,1.67589 -4.68736,2.67318 l -0.48072,0.3928 -0.68796,-0.003 -0.68797,-0.003 z" id="path26"/>
      <path style="fill:#000000;fill-opacity:1;stroke:#000000;stroke-width:0.0696315;stroke-dasharray:none;stroke-opacity:1" d="m 116.73898,81.927953 c 0.0785,-0.12703 1.33643,-1.10167 1.95759,-1.51674 1.32404,-0.88476 2.65074,-1.54857 4.07987,-2.04135 5.91637,-2.04005 12.4303,-0.87292 17.24887,3.09056 l 0.60346,0.49637 -0.71726,0.018 -0.71727,0.018 -0.26739,-0.21613 c -0.7804,-0.6308 -2.19235,-1.4686 -3.33072,-1.97633 -5.56101,-2.48031 -12.07468,-1.79994 -16.94813,1.77027 l -0.57056,0.41798 h -0.68796 c -0.42033,0 -0.67339,-0.0236 -0.6505,-0.0606 z" id="path27"/>
      <path style="fill:#000000;fill-opacity:1;stroke:#000000;stroke-width:0.0696315;stroke-dasharray:none;stroke-opacity:1" d="m 145.71156,152.09828 c -2.23911,-0.4904 -4.49925,-3.42101 -5.2207,-6.76944 -0.087,-0.40372 -0.11522,-0.80087 -0.11283,-1.58678 0.003,-0.96846 0.0156,-1.0809 0.16663,-1.4766 0.46836,-1.22735 1.36001,-2.04706 2.57864,-2.37059 0.61336,-0.16284 1.33004,-0.18836 1.76458,-0.0628 1.19177,0.34427 2.25074,1.29484 2.3613,2.11957 0.0172,0.12865 -0.0166,0.60557 -0.0753,1.05982 -0.17265,1.3368 -0.0524,1.79384 0.58162,2.2114 0.19107,0.12583 0.58127,0.31571 0.86711,0.42195 1.42522,0.52974 1.921,1.00727 2.13843,2.05974 0.14312,0.69273 -0.0222,1.23825 -0.67052,2.21204 -0.52832,0.7936 -1.25891,1.53625 -1.78677,1.81626 -0.78246,0.41506 -1.74566,0.55086 -2.59218,0.36546 z m 1.77745,-1.11844 c 0.64708,-0.2421 1.28403,-0.86579 1.91016,-1.87037 0.25416,-0.40778 0.31283,-0.55848 0.3346,-0.85942 0.0307,-0.42455 -0.0607,-0.74888 -0.28683,-1.01761 -0.19216,-0.22838 -0.34826,-0.3134 -1.03646,-0.56456 -1.07189,-0.3912 -1.76541,-0.88401 -2.06104,-1.46458 -0.3025,-0.59404 -0.35359,-1.24401 -0.18999,-2.41695 l 0.0985,-0.70594 -0.15572,-0.26572 c -0.23612,-0.40292 -0.91055,-0.84471 -1.52613,-0.99972 -0.67618,-0.17026 -1.78233,0.17245 -2.38941,0.7403 -0.62282,0.58258 -0.86812,1.35602 -0.80438,2.53621 0.10572,1.95718 1.10203,4.23565 2.4806,5.67287 1.20682,1.25817 2.42273,1.66574 3.62614,1.21549 z" id="path28"/>
      <path style="fill:#000000;fill-opacity:1;stroke:#000000;stroke-width:0.0696315;stroke-dasharray:none;stroke-opacity:1" d="m 159.40279,152.28335 c -0.22713,-0.049 -0.62738,-0.19404 -0.88945,-0.32239 -0.80235,-0.39297 -1.76715,-1.46709 -2.37308,-2.64197 -0.36857,-0.71463 -0.29845,-1.69374 0.17022,-2.37689 0.31727,-0.46247 0.74106,-0.74845 1.54734,-1.04419 1.6975,-0.62263 1.89872,-0.98607 1.63325,-2.95001 -0.10203,-0.75482 -0.10167,-0.76601 0.0359,-1.12749 0.26121,-0.68642 1.10648,-1.41388 2.01566,-1.73473 1.14244,-0.40316 2.7641,0.003 3.70297,0.92738 0.87783,0.8643 1.23671,2.03765 1.08559,3.54928 -0.32469,3.24784 -2.46166,6.61842 -4.76829,7.52089 -0.77045,0.30144 -1.4136,0.36102 -2.1601,0.20012 z m 1.89286,-1.20025 c 2.02716,-0.92129 3.8813,-4.08116 3.99921,-6.81558 0.0538,-1.24905 -0.13755,-1.89262 -0.74292,-2.49799 -0.52949,-0.52949 -1.42286,-0.86201 -2.17387,-0.80913 -0.67969,0.0479 -1.76077,0.7298 -1.87435,1.18233 -0.0225,0.0896 -0.008,0.45033 0.033,0.80168 0.11239,0.97163 0.0943,1.60543 -0.0602,2.10557 -0.11326,0.3667 -0.19235,0.49002 -0.52414,0.81731 -0.44796,0.44188 -0.79699,0.64366 -1.70796,0.9874 -0.75849,0.2862 -0.99945,0.4597 -1.19261,0.85872 -0.11132,0.22996 -0.13583,0.37139 -0.11478,0.66234 0.0227,0.31355 0.0795,0.45454 0.37269,0.92482 0.41067,0.65873 1.10972,1.4332 1.50014,1.662 0.47035,0.27565 0.76082,0.33977 1.45062,0.32023 0.54015,-0.0153 0.69522,-0.0452 1.03517,-0.1997 z" id="path29"/>
    </g>
  </g>
</svg>